<mxfile host="Electron" modified="2024-07-08T12:26:41.596Z" agent="Mozilla/5.0 (Windows NT 10.0; Win64; x64) AppleWebKit/537.36 (KHTML, like Gecko) draw.io/24.5.3 Chrome/124.0.6367.207 Electron/30.0.6 Safari/537.36" etag="nRvvsnOWWdGsxQc1n_DM" version="24.5.3" type="device">
  <diagram name="Page-1" id="j2-y5iguBYCK004hVtVf">
    <mxGraphModel dx="1500" dy="887" grid="1" gridSize="10" guides="1" tooltips="1" connect="1" arrows="1" fold="1" page="1" pageScale="1" pageWidth="900" pageHeight="1600" math="0" shadow="0">
      <root>
        <mxCell id="0" />
        <mxCell id="1" parent="0" />
        <mxCell id="U-3B_XLmBmkxY3aAZwwN-61" style="edgeStyle=orthogonalEdgeStyle;rounded=0;orthogonalLoop=1;jettySize=auto;html=1;exitX=0.5;exitY=0;exitDx=0;exitDy=0;entryX=0.5;entryY=1;entryDx=0;entryDy=0;fontSize=14;" edge="1" parent="1" source="U-3B_XLmBmkxY3aAZwwN-1" target="U-3B_XLmBmkxY3aAZwwN-63">
          <mxGeometry relative="1" as="geometry">
            <mxPoint x="240" y="240" as="targetPoint" />
          </mxGeometry>
        </mxCell>
        <mxCell id="U-3B_XLmBmkxY3aAZwwN-62" style="edgeStyle=orthogonalEdgeStyle;rounded=0;orthogonalLoop=1;jettySize=auto;html=1;exitX=0.5;exitY=0;exitDx=0;exitDy=0;entryX=0.5;entryY=1;entryDx=0;entryDy=0;fontSize=14;" edge="1" parent="1" source="U-3B_XLmBmkxY3aAZwwN-1" target="U-3B_XLmBmkxY3aAZwwN-64">
          <mxGeometry relative="1" as="geometry">
            <mxPoint x="180" y="240" as="targetPoint" />
          </mxGeometry>
        </mxCell>
        <mxCell id="U-3B_XLmBmkxY3aAZwwN-1" value="&amp;lt;&amp;lt;" style="ellipse;whiteSpace=wrap;html=1;aspect=fixed;fillColor=#f8cecc;strokeColor=#b85450;fontSize=14;" vertex="1" parent="1">
          <mxGeometry x="260" y="280" width="80" height="80" as="geometry" />
        </mxCell>
        <mxCell id="U-3B_XLmBmkxY3aAZwwN-109" style="edgeStyle=orthogonalEdgeStyle;rounded=0;orthogonalLoop=1;jettySize=auto;html=1;entryX=0.5;entryY=1;entryDx=0;entryDy=0;" edge="1" parent="1" source="U-3B_XLmBmkxY3aAZwwN-2" target="U-3B_XLmBmkxY3aAZwwN-93">
          <mxGeometry relative="1" as="geometry" />
        </mxCell>
        <mxCell id="U-3B_XLmBmkxY3aAZwwN-2" value="&amp;gt;&amp;gt;" style="ellipse;whiteSpace=wrap;html=1;aspect=fixed;fillColor=#f8cecc;strokeColor=#b85450;fontSize=14;" vertex="1" parent="1">
          <mxGeometry x="380" y="280" width="80" height="80" as="geometry" />
        </mxCell>
        <mxCell id="U-3B_XLmBmkxY3aAZwwN-58" style="edgeStyle=orthogonalEdgeStyle;rounded=0;orthogonalLoop=1;jettySize=auto;html=1;fontSize=14;" edge="1" parent="1" source="U-3B_XLmBmkxY3aAZwwN-3" target="U-3B_XLmBmkxY3aAZwwN-59">
          <mxGeometry relative="1" as="geometry">
            <mxPoint x="360" y="120" as="targetPoint" />
          </mxGeometry>
        </mxCell>
        <mxCell id="U-3B_XLmBmkxY3aAZwwN-3" value="" style="shape=xor;whiteSpace=wrap;html=1;rotation=-90;fillColor=#f8cecc;strokeColor=#b85450;fontSize=14;" vertex="1" parent="1">
          <mxGeometry x="330" y="90" width="60" height="160" as="geometry" />
        </mxCell>
        <mxCell id="U-3B_XLmBmkxY3aAZwwN-4" style="edgeStyle=orthogonalEdgeStyle;rounded=0;orthogonalLoop=1;jettySize=auto;html=1;entryX=0.175;entryY=0.25;entryDx=0;entryDy=0;entryPerimeter=0;fontSize=14;" edge="1" parent="1" source="U-3B_XLmBmkxY3aAZwwN-1" target="U-3B_XLmBmkxY3aAZwwN-3">
          <mxGeometry relative="1" as="geometry" />
        </mxCell>
        <mxCell id="U-3B_XLmBmkxY3aAZwwN-5" style="edgeStyle=orthogonalEdgeStyle;rounded=0;orthogonalLoop=1;jettySize=auto;html=1;entryX=0.175;entryY=0.75;entryDx=0;entryDy=0;entryPerimeter=0;fontSize=14;" edge="1" parent="1" source="U-3B_XLmBmkxY3aAZwwN-2" target="U-3B_XLmBmkxY3aAZwwN-3">
          <mxGeometry relative="1" as="geometry" />
        </mxCell>
        <mxCell id="U-3B_XLmBmkxY3aAZwwN-7" style="edgeStyle=orthogonalEdgeStyle;rounded=0;orthogonalLoop=1;jettySize=auto;html=1;entryX=0;entryY=0.5;entryDx=0;entryDy=0;fontSize=14;" edge="1" parent="1" source="U-3B_XLmBmkxY3aAZwwN-6" target="U-3B_XLmBmkxY3aAZwwN-1">
          <mxGeometry relative="1" as="geometry">
            <Array as="points">
              <mxPoint x="140" y="320" />
            </Array>
          </mxGeometry>
        </mxCell>
        <mxCell id="U-3B_XLmBmkxY3aAZwwN-10" style="edgeStyle=orthogonalEdgeStyle;rounded=0;orthogonalLoop=1;jettySize=auto;html=1;entryX=0;entryY=0.5;entryDx=0;entryDy=0;fontSize=14;" edge="1" parent="1" source="U-3B_XLmBmkxY3aAZwwN-9" target="U-3B_XLmBmkxY3aAZwwN-6">
          <mxGeometry relative="1" as="geometry">
            <Array as="points">
              <mxPoint x="30" y="370" />
            </Array>
          </mxGeometry>
        </mxCell>
        <mxCell id="U-3B_XLmBmkxY3aAZwwN-9" value="rol" style="text;html=1;align=center;verticalAlign=middle;whiteSpace=wrap;rounded=0;fontSize=14;" vertex="1" parent="1">
          <mxGeometry x="10" y="400" width="40" height="20" as="geometry" />
        </mxCell>
        <mxCell id="U-3B_XLmBmkxY3aAZwwN-13" style="edgeStyle=orthogonalEdgeStyle;rounded=0;orthogonalLoop=1;jettySize=auto;html=1;entryX=0.25;entryY=1;entryDx=0;entryDy=0;fontSize=14;" edge="1" parent="1" source="U-3B_XLmBmkxY3aAZwwN-11" target="U-3B_XLmBmkxY3aAZwwN-6">
          <mxGeometry relative="1" as="geometry" />
        </mxCell>
        <mxCell id="U-3B_XLmBmkxY3aAZwwN-11" value="31-shamt" style="text;html=1;align=center;verticalAlign=middle;whiteSpace=wrap;rounded=0;fontSize=14;" vertex="1" parent="1">
          <mxGeometry x="75" y="425" width="70" height="20" as="geometry" />
        </mxCell>
        <mxCell id="U-3B_XLmBmkxY3aAZwwN-14" style="edgeStyle=orthogonalEdgeStyle;rounded=0;orthogonalLoop=1;jettySize=auto;html=1;entryX=0.75;entryY=1;entryDx=0;entryDy=0;fontSize=14;" edge="1" parent="1" source="U-3B_XLmBmkxY3aAZwwN-12" target="U-3B_XLmBmkxY3aAZwwN-6">
          <mxGeometry relative="1" as="geometry" />
        </mxCell>
        <mxCell id="U-3B_XLmBmkxY3aAZwwN-12" value="shamt" style="text;html=1;align=center;verticalAlign=middle;whiteSpace=wrap;rounded=0;fontSize=14;" vertex="1" parent="1">
          <mxGeometry x="145" y="425" width="50" height="20" as="geometry" />
        </mxCell>
        <mxCell id="U-3B_XLmBmkxY3aAZwwN-15" style="edgeStyle=orthogonalEdgeStyle;rounded=0;orthogonalLoop=1;jettySize=auto;html=1;exitX=0.5;exitY=1;exitDx=0;exitDy=0;fontSize=14;" edge="1" parent="1" source="U-3B_XLmBmkxY3aAZwwN-11" target="U-3B_XLmBmkxY3aAZwwN-11">
          <mxGeometry relative="1" as="geometry" />
        </mxCell>
        <mxCell id="U-3B_XLmBmkxY3aAZwwN-18" value="" style="group;fontSize=14;" vertex="1" connectable="0" parent="1">
          <mxGeometry x="80" y="350" width="120" height="40" as="geometry" />
        </mxCell>
        <mxCell id="U-3B_XLmBmkxY3aAZwwN-6" value="" style="shape=trapezoid;perimeter=trapezoidPerimeter;whiteSpace=wrap;html=1;fixedSize=1;fillColor=#dae8fc;strokeColor=#6c8ebf;fontSize=14;" vertex="1" parent="U-3B_XLmBmkxY3aAZwwN-18">
          <mxGeometry width="120" height="40" as="geometry" />
        </mxCell>
        <mxCell id="U-3B_XLmBmkxY3aAZwwN-16" value="1" style="text;html=1;align=center;verticalAlign=middle;whiteSpace=wrap;rounded=0;fontSize=14;" vertex="1" parent="U-3B_XLmBmkxY3aAZwwN-18">
          <mxGeometry x="80" y="5" width="20" height="30" as="geometry" />
        </mxCell>
        <mxCell id="U-3B_XLmBmkxY3aAZwwN-17" value="0" style="text;html=1;align=center;verticalAlign=middle;whiteSpace=wrap;rounded=0;fontSize=14;" vertex="1" parent="U-3B_XLmBmkxY3aAZwwN-18">
          <mxGeometry x="20" y="5" width="20" height="30" as="geometry" />
        </mxCell>
        <mxCell id="U-3B_XLmBmkxY3aAZwwN-19" value="" style="group;fontSize=14;" vertex="1" connectable="0" parent="1">
          <mxGeometry x="240" y="390" width="120" height="40" as="geometry" />
        </mxCell>
        <mxCell id="U-3B_XLmBmkxY3aAZwwN-20" value="" style="shape=trapezoid;perimeter=trapezoidPerimeter;whiteSpace=wrap;html=1;fixedSize=1;fillColor=#dae8fc;strokeColor=#6c8ebf;fontSize=14;" vertex="1" parent="U-3B_XLmBmkxY3aAZwwN-19">
          <mxGeometry width="120" height="40" as="geometry" />
        </mxCell>
        <mxCell id="U-3B_XLmBmkxY3aAZwwN-21" value="1" style="text;html=1;align=center;verticalAlign=middle;whiteSpace=wrap;rounded=0;fontSize=14;" vertex="1" parent="U-3B_XLmBmkxY3aAZwwN-19">
          <mxGeometry x="80" y="5" width="20" height="30" as="geometry" />
        </mxCell>
        <mxCell id="U-3B_XLmBmkxY3aAZwwN-22" value="0" style="text;html=1;align=center;verticalAlign=middle;whiteSpace=wrap;rounded=0;fontSize=14;" vertex="1" parent="U-3B_XLmBmkxY3aAZwwN-19">
          <mxGeometry x="20" y="5" width="20" height="30" as="geometry" />
        </mxCell>
        <mxCell id="U-3B_XLmBmkxY3aAZwwN-23" value="" style="edgeStyle=orthogonalEdgeStyle;rounded=0;orthogonalLoop=1;jettySize=auto;html=1;fontSize=14;" edge="1" parent="1" source="U-3B_XLmBmkxY3aAZwwN-20" target="U-3B_XLmBmkxY3aAZwwN-1">
          <mxGeometry relative="1" as="geometry" />
        </mxCell>
        <mxCell id="U-3B_XLmBmkxY3aAZwwN-26" style="edgeStyle=orthogonalEdgeStyle;rounded=0;orthogonalLoop=1;jettySize=auto;html=1;entryX=0.25;entryY=1;entryDx=0;entryDy=0;fontSize=14;" edge="1" parent="1" source="U-3B_XLmBmkxY3aAZwwN-25" target="U-3B_XLmBmkxY3aAZwwN-20">
          <mxGeometry relative="1" as="geometry" />
        </mxCell>
        <mxCell id="U-3B_XLmBmkxY3aAZwwN-25" value="32&#39;d1" style="text;html=1;align=center;verticalAlign=middle;whiteSpace=wrap;rounded=0;fontSize=14;" vertex="1" parent="1">
          <mxGeometry x="245" y="475" width="50" height="30" as="geometry" />
        </mxCell>
        <mxCell id="U-3B_XLmBmkxY3aAZwwN-28" style="edgeStyle=orthogonalEdgeStyle;rounded=0;orthogonalLoop=1;jettySize=auto;html=1;entryX=0.75;entryY=1;entryDx=0;entryDy=0;fontSize=14;" edge="1" parent="1" source="U-3B_XLmBmkxY3aAZwwN-27" target="U-3B_XLmBmkxY3aAZwwN-20">
          <mxGeometry relative="1" as="geometry" />
        </mxCell>
        <mxCell id="U-3B_XLmBmkxY3aAZwwN-27" value="rs1" style="text;html=1;align=center;verticalAlign=middle;whiteSpace=wrap;rounded=0;fontSize=14;" vertex="1" parent="1">
          <mxGeometry x="305" y="480" width="50" height="20" as="geometry" />
        </mxCell>
        <mxCell id="U-3B_XLmBmkxY3aAZwwN-31" style="edgeStyle=orthogonalEdgeStyle;rounded=0;orthogonalLoop=1;jettySize=auto;html=1;entryX=0;entryY=0.5;entryDx=0;entryDy=0;fontSize=14;" edge="1" parent="1" source="U-3B_XLmBmkxY3aAZwwN-29" target="U-3B_XLmBmkxY3aAZwwN-20">
          <mxGeometry relative="1" as="geometry">
            <Array as="points">
              <mxPoint x="220" y="410" />
            </Array>
          </mxGeometry>
        </mxCell>
        <mxCell id="U-3B_XLmBmkxY3aAZwwN-29" value="single bit manupilation" style="text;html=1;align=center;verticalAlign=middle;whiteSpace=wrap;rounded=0;fontSize=14;" vertex="1" parent="1">
          <mxGeometry x="170" y="520" width="100" height="40" as="geometry" />
        </mxCell>
        <mxCell id="U-3B_XLmBmkxY3aAZwwN-33" value="" style="edgeStyle=orthogonalEdgeStyle;rounded=0;orthogonalLoop=1;jettySize=auto;html=1;fontSize=14;" edge="1" parent="1" source="U-3B_XLmBmkxY3aAZwwN-32" target="U-3B_XLmBmkxY3aAZwwN-2">
          <mxGeometry relative="1" as="geometry" />
        </mxCell>
        <mxCell id="U-3B_XLmBmkxY3aAZwwN-32" value="rs1" style="text;html=1;align=center;verticalAlign=middle;whiteSpace=wrap;rounded=0;fontSize=14;" vertex="1" parent="1">
          <mxGeometry x="395" y="480" width="50" height="20" as="geometry" />
        </mxCell>
        <mxCell id="U-3B_XLmBmkxY3aAZwwN-34" value="" style="group;fontSize=14;" vertex="1" connectable="0" parent="1">
          <mxGeometry x="500" y="350" width="160" height="40" as="geometry" />
        </mxCell>
        <mxCell id="U-3B_XLmBmkxY3aAZwwN-35" value="" style="shape=trapezoid;perimeter=trapezoidPerimeter;whiteSpace=wrap;html=1;fixedSize=1;fillColor=#dae8fc;strokeColor=#6c8ebf;fontSize=14;" vertex="1" parent="U-3B_XLmBmkxY3aAZwwN-34">
          <mxGeometry width="160" height="40" as="geometry" />
        </mxCell>
        <mxCell id="U-3B_XLmBmkxY3aAZwwN-36" value="1" style="text;html=1;align=center;verticalAlign=middle;whiteSpace=wrap;rounded=0;fontSize=14;" vertex="1" parent="U-3B_XLmBmkxY3aAZwwN-34">
          <mxGeometry x="120" y="5" width="20" height="30" as="geometry" />
        </mxCell>
        <mxCell id="U-3B_XLmBmkxY3aAZwwN-37" value="0" style="text;html=1;align=center;verticalAlign=middle;whiteSpace=wrap;rounded=0;fontSize=14;" vertex="1" parent="U-3B_XLmBmkxY3aAZwwN-34">
          <mxGeometry x="30" y="5" width="20" height="30" as="geometry" />
        </mxCell>
        <mxCell id="U-3B_XLmBmkxY3aAZwwN-39" style="edgeStyle=orthogonalEdgeStyle;rounded=0;orthogonalLoop=1;jettySize=auto;html=1;entryX=1;entryY=0.5;entryDx=0;entryDy=0;fontSize=14;" edge="1" parent="1" source="U-3B_XLmBmkxY3aAZwwN-35" target="U-3B_XLmBmkxY3aAZwwN-2">
          <mxGeometry relative="1" as="geometry">
            <Array as="points">
              <mxPoint x="580" y="320" />
            </Array>
          </mxGeometry>
        </mxCell>
        <mxCell id="U-3B_XLmBmkxY3aAZwwN-48" style="edgeStyle=orthogonalEdgeStyle;rounded=0;orthogonalLoop=1;jettySize=auto;html=1;entryX=0.25;entryY=1;entryDx=0;entryDy=0;fontSize=14;" edge="1" parent="1" source="U-3B_XLmBmkxY3aAZwwN-40" target="U-3B_XLmBmkxY3aAZwwN-35">
          <mxGeometry relative="1" as="geometry" />
        </mxCell>
        <mxCell id="U-3B_XLmBmkxY3aAZwwN-40" value="" style="shape=trapezoid;perimeter=trapezoidPerimeter;whiteSpace=wrap;html=1;fixedSize=1;fillColor=#dae8fc;strokeColor=#6c8ebf;fontSize=14;" vertex="1" parent="1">
          <mxGeometry x="455" y="420" width="150" height="40" as="geometry" />
        </mxCell>
        <mxCell id="U-3B_XLmBmkxY3aAZwwN-45" style="edgeStyle=orthogonalEdgeStyle;rounded=0;orthogonalLoop=1;jettySize=auto;html=1;entryX=0.25;entryY=1;entryDx=0;entryDy=0;fontSize=14;" edge="1" parent="1" source="U-3B_XLmBmkxY3aAZwwN-42" target="U-3B_XLmBmkxY3aAZwwN-40">
          <mxGeometry relative="1" as="geometry" />
        </mxCell>
        <mxCell id="U-3B_XLmBmkxY3aAZwwN-42" value="shamt" style="text;html=1;align=center;verticalAlign=middle;whiteSpace=wrap;rounded=0;fontSize=14;" vertex="1" parent="1">
          <mxGeometry x="455" y="493" width="50" height="20" as="geometry" />
        </mxCell>
        <mxCell id="U-3B_XLmBmkxY3aAZwwN-47" style="edgeStyle=orthogonalEdgeStyle;rounded=0;orthogonalLoop=1;jettySize=auto;html=1;entryX=0.75;entryY=1;entryDx=0;entryDy=0;fontSize=14;" edge="1" parent="1" source="U-3B_XLmBmkxY3aAZwwN-46" target="U-3B_XLmBmkxY3aAZwwN-40">
          <mxGeometry relative="1" as="geometry" />
        </mxCell>
        <mxCell id="U-3B_XLmBmkxY3aAZwwN-46" value="{00,instruction[14:13]}" style="text;html=1;align=center;verticalAlign=middle;whiteSpace=wrap;rounded=0;fontSize=14;" vertex="1" parent="1">
          <mxGeometry x="517.5" y="493" width="125" height="20" as="geometry" />
        </mxCell>
        <mxCell id="U-3B_XLmBmkxY3aAZwwN-50" style="edgeStyle=orthogonalEdgeStyle;rounded=0;orthogonalLoop=1;jettySize=auto;html=1;entryX=0.75;entryY=1;entryDx=0;entryDy=0;fontSize=14;" edge="1" parent="1" source="U-3B_XLmBmkxY3aAZwwN-49" target="U-3B_XLmBmkxY3aAZwwN-35">
          <mxGeometry relative="1" as="geometry" />
        </mxCell>
        <mxCell id="U-3B_XLmBmkxY3aAZwwN-49" value="31-shamt" style="text;html=1;align=center;verticalAlign=middle;whiteSpace=wrap;rounded=0;fontSize=14;" vertex="1" parent="1">
          <mxGeometry x="605" y="420" width="70" height="20" as="geometry" />
        </mxCell>
        <mxCell id="U-3B_XLmBmkxY3aAZwwN-53" style="edgeStyle=orthogonalEdgeStyle;rounded=0;orthogonalLoop=1;jettySize=auto;html=1;entryX=1;entryY=0.5;entryDx=0;entryDy=0;fontSize=14;" edge="1" parent="1" source="U-3B_XLmBmkxY3aAZwwN-51" target="U-3B_XLmBmkxY3aAZwwN-35">
          <mxGeometry relative="1" as="geometry" />
        </mxCell>
        <mxCell id="U-3B_XLmBmkxY3aAZwwN-51" value="rol" style="text;html=1;align=center;verticalAlign=middle;whiteSpace=wrap;rounded=0;fontSize=14;fontColor=#A680B8;" vertex="1" parent="1">
          <mxGeometry x="700" y="360" width="30" height="20" as="geometry" />
        </mxCell>
        <mxCell id="U-3B_XLmBmkxY3aAZwwN-55" style="edgeStyle=orthogonalEdgeStyle;rounded=0;orthogonalLoop=1;jettySize=auto;html=1;exitX=0.5;exitY=0;exitDx=0;exitDy=0;entryX=0;entryY=0.5;entryDx=0;entryDy=0;fontSize=14;" edge="1" parent="1" source="U-3B_XLmBmkxY3aAZwwN-54" target="U-3B_XLmBmkxY3aAZwwN-40">
          <mxGeometry relative="1" as="geometry">
            <Array as="points">
              <mxPoint x="445" y="440" />
            </Array>
          </mxGeometry>
        </mxCell>
        <mxCell id="U-3B_XLmBmkxY3aAZwwN-54" value="sh(i)add" style="text;html=1;align=center;verticalAlign=middle;whiteSpace=wrap;rounded=0;fontSize=14;" vertex="1" parent="1">
          <mxGeometry x="395" y="530" width="100" height="30" as="geometry" />
        </mxCell>
        <mxCell id="U-3B_XLmBmkxY3aAZwwN-56" value="0" style="text;html=1;align=center;verticalAlign=middle;whiteSpace=wrap;rounded=0;fontSize=14;" vertex="1" parent="1">
          <mxGeometry x="482" y="430" width="20" height="30" as="geometry" />
        </mxCell>
        <mxCell id="U-3B_XLmBmkxY3aAZwwN-57" value="1" style="text;html=1;align=center;verticalAlign=middle;whiteSpace=wrap;rounded=0;fontSize=14;" vertex="1" parent="1">
          <mxGeometry x="557" y="430" width="20" height="30" as="geometry" />
        </mxCell>
        <mxCell id="U-3B_XLmBmkxY3aAZwwN-59" value="rol,ror,rori" style="text;html=1;align=center;verticalAlign=middle;whiteSpace=wrap;rounded=0;fontSize=14;fontColor=#A680B8;" vertex="1" parent="1">
          <mxGeometry x="325" y="90" width="70" height="20" as="geometry" />
        </mxCell>
        <mxCell id="U-3B_XLmBmkxY3aAZwwN-63" value="decoder" style="text;html=1;align=center;verticalAlign=middle;whiteSpace=wrap;rounded=0;fontSize=14;" vertex="1" parent="1">
          <mxGeometry x="210" y="220" width="70" height="20" as="geometry" />
        </mxCell>
        <mxCell id="U-3B_XLmBmkxY3aAZwwN-64" value="left shift" style="text;html=1;align=center;verticalAlign=middle;whiteSpace=wrap;rounded=0;fontSize=14;" vertex="1" parent="1">
          <mxGeometry x="135" y="220" width="70" height="20" as="geometry" />
        </mxCell>
        <mxCell id="U-3B_XLmBmkxY3aAZwwN-65" value="" style="shape=xor;whiteSpace=wrap;html=1;fillColor=#f8cecc;strokeColor=#b85450;fontSize=14;" vertex="1" parent="1">
          <mxGeometry x="280" y="570" width="60" height="80" as="geometry" />
        </mxCell>
        <mxCell id="U-3B_XLmBmkxY3aAZwwN-81" style="edgeStyle=orthogonalEdgeStyle;rounded=0;orthogonalLoop=1;jettySize=auto;html=1;entryX=0;entryY=0.5;entryDx=0;entryDy=0;fontSize=14;" edge="1" parent="1" source="U-3B_XLmBmkxY3aAZwwN-66" target="U-3B_XLmBmkxY3aAZwwN-80">
          <mxGeometry relative="1" as="geometry">
            <Array as="points">
              <mxPoint x="140" y="660" />
              <mxPoint x="140" y="785" />
            </Array>
          </mxGeometry>
        </mxCell>
        <mxCell id="U-3B_XLmBmkxY3aAZwwN-66" value="decoder" style="text;html=1;align=center;verticalAlign=middle;whiteSpace=wrap;rounded=0;fontSize=14;" vertex="1" parent="1">
          <mxGeometry x="10" y="650" width="70" height="20" as="geometry" />
        </mxCell>
        <mxCell id="U-3B_XLmBmkxY3aAZwwN-67" style="edgeStyle=orthogonalEdgeStyle;rounded=0;orthogonalLoop=1;jettySize=auto;html=1;entryX=0.175;entryY=0.25;entryDx=0;entryDy=0;entryPerimeter=0;fontSize=14;" edge="1" parent="1" source="U-3B_XLmBmkxY3aAZwwN-66" target="U-3B_XLmBmkxY3aAZwwN-65">
          <mxGeometry relative="1" as="geometry">
            <Array as="points">
              <mxPoint x="140" y="660" />
              <mxPoint x="140" y="590" />
            </Array>
          </mxGeometry>
        </mxCell>
        <mxCell id="U-3B_XLmBmkxY3aAZwwN-68" value="rs2" style="text;html=1;align=center;verticalAlign=middle;whiteSpace=wrap;rounded=0;fontSize=14;" vertex="1" parent="1">
          <mxGeometry x="205" y="615" width="30" height="30" as="geometry" />
        </mxCell>
        <mxCell id="U-3B_XLmBmkxY3aAZwwN-69" style="edgeStyle=orthogonalEdgeStyle;rounded=0;orthogonalLoop=1;jettySize=auto;html=1;entryX=0.175;entryY=0.75;entryDx=0;entryDy=0;entryPerimeter=0;fontSize=14;" edge="1" parent="1" source="U-3B_XLmBmkxY3aAZwwN-68" target="U-3B_XLmBmkxY3aAZwwN-65">
          <mxGeometry relative="1" as="geometry" />
        </mxCell>
        <mxCell id="U-3B_XLmBmkxY3aAZwwN-70" value="" style="verticalLabelPosition=bottom;shadow=0;dashed=0;align=center;html=1;verticalAlign=top;shape=mxgraph.electrical.logic_gates.logic_gate;operation=xor;fillColor=#f8cecc;strokeColor=#b85450;fontSize=14;" vertex="1" parent="1">
          <mxGeometry x="270" y="680" width="100" height="60" as="geometry" />
        </mxCell>
        <mxCell id="U-3B_XLmBmkxY3aAZwwN-72" value="" style="endArrow=none;html=1;rounded=0;entryX=0;entryY=0.25;entryDx=0;entryDy=0;entryPerimeter=0;fontSize=14;" edge="1" parent="1" target="U-3B_XLmBmkxY3aAZwwN-70">
          <mxGeometry width="50" height="50" relative="1" as="geometry">
            <mxPoint x="140" y="660" as="sourcePoint" />
            <mxPoint x="260" y="670" as="targetPoint" />
            <Array as="points">
              <mxPoint x="140" y="695" />
            </Array>
          </mxGeometry>
        </mxCell>
        <mxCell id="U-3B_XLmBmkxY3aAZwwN-73" value="rs2" style="text;html=1;align=center;verticalAlign=middle;whiteSpace=wrap;rounded=0;fontSize=14;" vertex="1" parent="1">
          <mxGeometry x="205" y="710" width="30" height="30" as="geometry" />
        </mxCell>
        <mxCell id="U-3B_XLmBmkxY3aAZwwN-75" value="" style="endArrow=none;html=1;rounded=0;entryX=0;entryY=0.75;entryDx=0;entryDy=0;entryPerimeter=0;exitX=1;exitY=0.5;exitDx=0;exitDy=0;fontSize=14;" edge="1" parent="1" source="U-3B_XLmBmkxY3aAZwwN-73" target="U-3B_XLmBmkxY3aAZwwN-70">
          <mxGeometry width="50" height="50" relative="1" as="geometry">
            <mxPoint x="208" y="690" as="sourcePoint" />
            <mxPoint x="258" y="640" as="targetPoint" />
          </mxGeometry>
        </mxCell>
        <mxCell id="U-3B_XLmBmkxY3aAZwwN-78" value="" style="endArrow=none;html=1;rounded=0;entryX=1;entryY=0.5;entryDx=0;entryDy=0;entryPerimeter=0;exitX=0;exitY=0.5;exitDx=0;exitDy=0;fontSize=14;" edge="1" parent="1" source="U-3B_XLmBmkxY3aAZwwN-102" target="U-3B_XLmBmkxY3aAZwwN-65">
          <mxGeometry width="50" height="50" relative="1" as="geometry">
            <mxPoint x="370" y="610" as="sourcePoint" />
            <mxPoint x="280" y="660" as="targetPoint" />
          </mxGeometry>
        </mxCell>
        <mxCell id="U-3B_XLmBmkxY3aAZwwN-79" value="" style="shape=or;whiteSpace=wrap;html=1;fillColor=#f8cecc;strokeColor=#b85450;fontSize=14;" vertex="1" parent="1">
          <mxGeometry x="290" y="760" width="60" height="80" as="geometry" />
        </mxCell>
        <mxCell id="U-3B_XLmBmkxY3aAZwwN-80" value="" style="ellipse;whiteSpace=wrap;html=1;aspect=fixed;fillColor=#f8cecc;strokeColor=#b85450;fontSize=14;" vertex="1" parent="1">
          <mxGeometry x="260" y="770" width="30" height="30" as="geometry" />
        </mxCell>
        <mxCell id="U-3B_XLmBmkxY3aAZwwN-82" value="rs2" style="text;html=1;align=center;verticalAlign=middle;whiteSpace=wrap;rounded=0;fontSize=14;" vertex="1" parent="1">
          <mxGeometry x="205" y="805" width="30" height="30" as="geometry" />
        </mxCell>
        <mxCell id="U-3B_XLmBmkxY3aAZwwN-83" style="edgeStyle=orthogonalEdgeStyle;rounded=0;orthogonalLoop=1;jettySize=auto;html=1;entryX=0;entryY=0.75;entryDx=0;entryDy=0;entryPerimeter=0;fontSize=14;" edge="1" parent="1" source="U-3B_XLmBmkxY3aAZwwN-82" target="U-3B_XLmBmkxY3aAZwwN-79">
          <mxGeometry relative="1" as="geometry" />
        </mxCell>
        <mxCell id="U-3B_XLmBmkxY3aAZwwN-84" value="" style="endArrow=none;html=1;rounded=0;entryX=1;entryY=0.5;entryDx=0;entryDy=0;entryPerimeter=0;exitX=0;exitY=0.5;exitDx=0;exitDy=0;fontSize=14;" edge="1" parent="1" source="U-3B_XLmBmkxY3aAZwwN-104" target="U-3B_XLmBmkxY3aAZwwN-79">
          <mxGeometry width="50" height="50" relative="1" as="geometry">
            <mxPoint x="370" y="800" as="sourcePoint" />
            <mxPoint x="350" y="620" as="targetPoint" />
          </mxGeometry>
        </mxCell>
        <mxCell id="U-3B_XLmBmkxY3aAZwwN-85" value="left shift" style="text;html=1;align=center;verticalAlign=middle;whiteSpace=wrap;rounded=0;fontSize=14;" vertex="1" parent="1">
          <mxGeometry x="440" y="614" width="50" height="20" as="geometry" />
        </mxCell>
        <mxCell id="U-3B_XLmBmkxY3aAZwwN-91" style="edgeStyle=orthogonalEdgeStyle;rounded=0;orthogonalLoop=1;jettySize=auto;html=1;entryX=0;entryY=0.5;entryDx=0;entryDy=0;fontSize=14;" edge="1" parent="1" source="U-3B_XLmBmkxY3aAZwwN-86" target="U-3B_XLmBmkxY3aAZwwN-106">
          <mxGeometry relative="1" as="geometry">
            <mxPoint x="685" y="644" as="targetPoint" />
          </mxGeometry>
        </mxCell>
        <mxCell id="U-3B_XLmBmkxY3aAZwwN-86" value="" style="shape=or;whiteSpace=wrap;html=1;fillColor=#f8cecc;strokeColor=#b85450;fontSize=14;" vertex="1" parent="1">
          <mxGeometry x="562" y="604" width="60" height="80" as="geometry" />
        </mxCell>
        <mxCell id="U-3B_XLmBmkxY3aAZwwN-88" value="32&#39;d1" style="text;html=1;align=center;verticalAlign=middle;whiteSpace=wrap;rounded=0;fontSize=14;" vertex="1" parent="1">
          <mxGeometry x="450" y="654" width="40" height="20" as="geometry" />
        </mxCell>
        <mxCell id="U-3B_XLmBmkxY3aAZwwN-89" style="edgeStyle=orthogonalEdgeStyle;rounded=0;orthogonalLoop=1;jettySize=auto;html=1;entryX=0;entryY=0.25;entryDx=0;entryDy=0;entryPerimeter=0;fontSize=14;" edge="1" parent="1" source="U-3B_XLmBmkxY3aAZwwN-85" target="U-3B_XLmBmkxY3aAZwwN-86">
          <mxGeometry relative="1" as="geometry" />
        </mxCell>
        <mxCell id="U-3B_XLmBmkxY3aAZwwN-90" style="edgeStyle=orthogonalEdgeStyle;rounded=0;orthogonalLoop=1;jettySize=auto;html=1;entryX=0;entryY=0.75;entryDx=0;entryDy=0;entryPerimeter=0;fontSize=14;" edge="1" parent="1" source="U-3B_XLmBmkxY3aAZwwN-88" target="U-3B_XLmBmkxY3aAZwwN-86">
          <mxGeometry relative="1" as="geometry" />
        </mxCell>
        <mxCell id="U-3B_XLmBmkxY3aAZwwN-93" value="Right Shift" style="text;html=1;align=center;verticalAlign=middle;whiteSpace=wrap;rounded=0;fontSize=14;" vertex="1" parent="1">
          <mxGeometry x="460" y="220" width="80" height="20" as="geometry" />
        </mxCell>
        <mxCell id="U-3B_XLmBmkxY3aAZwwN-98" style="edgeStyle=orthogonalEdgeStyle;rounded=0;orthogonalLoop=1;jettySize=auto;html=1;entryX=0;entryY=0;entryDx=0;entryDy=0;fontSize=14;" edge="1" parent="1" source="U-3B_XLmBmkxY3aAZwwN-95" target="U-3B_XLmBmkxY3aAZwwN-97">
          <mxGeometry relative="1" as="geometry" />
        </mxCell>
        <mxCell id="U-3B_XLmBmkxY3aAZwwN-95" value="Right Shift" style="text;html=1;align=center;verticalAlign=middle;whiteSpace=wrap;rounded=0;fontSize=14;" vertex="1" parent="1">
          <mxGeometry x="430" y="724" width="60" height="20" as="geometry" />
        </mxCell>
        <mxCell id="U-3B_XLmBmkxY3aAZwwN-99" style="edgeStyle=orthogonalEdgeStyle;rounded=0;orthogonalLoop=1;jettySize=auto;html=1;entryX=0;entryY=1;entryDx=0;entryDy=0;fontSize=14;" edge="1" parent="1" source="U-3B_XLmBmkxY3aAZwwN-96" target="U-3B_XLmBmkxY3aAZwwN-97">
          <mxGeometry relative="1" as="geometry" />
        </mxCell>
        <mxCell id="U-3B_XLmBmkxY3aAZwwN-96" value="rs2" style="text;html=1;align=center;verticalAlign=middle;whiteSpace=wrap;rounded=0;fontSize=14;" vertex="1" parent="1">
          <mxGeometry x="457" y="775" width="30" height="30" as="geometry" />
        </mxCell>
        <mxCell id="U-3B_XLmBmkxY3aAZwwN-100" style="edgeStyle=orthogonalEdgeStyle;rounded=0;orthogonalLoop=1;jettySize=auto;html=1;entryX=0;entryY=0.5;entryDx=0;entryDy=0;fontSize=14;" edge="1" parent="1" source="U-3B_XLmBmkxY3aAZwwN-97" target="U-3B_XLmBmkxY3aAZwwN-107">
          <mxGeometry relative="1" as="geometry">
            <mxPoint x="685" y="762" as="targetPoint" />
          </mxGeometry>
        </mxCell>
        <mxCell id="U-3B_XLmBmkxY3aAZwwN-97" value="+" style="ellipse;whiteSpace=wrap;html=1;aspect=fixed;fillColor=#f8cecc;strokeColor=#b85450;fontSize=14;" vertex="1" parent="1">
          <mxGeometry x="552" y="722" width="80" height="80" as="geometry" />
        </mxCell>
        <mxCell id="U-3B_XLmBmkxY3aAZwwN-102" value="bset" style="text;html=1;align=center;verticalAlign=middle;whiteSpace=wrap;rounded=0;fontSize=14;fontColor=#A680B8;" vertex="1" parent="1">
          <mxGeometry x="360" y="595" width="40" height="30" as="geometry" />
        </mxCell>
        <mxCell id="U-3B_XLmBmkxY3aAZwwN-103" value="binv" style="text;html=1;align=center;verticalAlign=middle;whiteSpace=wrap;rounded=0;fontSize=14;fontColor=#A680B8;" vertex="1" parent="1">
          <mxGeometry x="360" y="695" width="40" height="30" as="geometry" />
        </mxCell>
        <mxCell id="U-3B_XLmBmkxY3aAZwwN-104" value="bclr" style="text;html=1;align=center;verticalAlign=middle;whiteSpace=wrap;rounded=0;fontSize=14;fontColor=#A680B8;" vertex="1" parent="1">
          <mxGeometry x="360" y="785" width="40" height="30" as="geometry" />
        </mxCell>
        <mxCell id="U-3B_XLmBmkxY3aAZwwN-106" value="bext" style="text;html=1;align=center;verticalAlign=middle;whiteSpace=wrap;rounded=0;fontSize=14;fontColor=#A680B8;" vertex="1" parent="1">
          <mxGeometry x="680" y="629" width="40" height="30" as="geometry" />
        </mxCell>
        <mxCell id="U-3B_XLmBmkxY3aAZwwN-107" value="sh(i)add" style="text;html=1;align=center;verticalAlign=middle;whiteSpace=wrap;rounded=0;fontSize=14;fontColor=#A680B8;" vertex="1" parent="1">
          <mxGeometry x="680" y="747" width="50" height="30" as="geometry" />
        </mxCell>
      </root>
    </mxGraphModel>
  </diagram>
</mxfile>
